<?xml version="1.0" encoding="UTF-8" standalone="no"?><svg xmlns="http://www.w3.org/2000/svg" xmlns:xlink="http://www.w3.org/1999/xlink" clip-rule="evenodd" stroke-miterlimit="10" viewBox="0 0 1024 768"><desc>SVG generated by Keynote</desc><defs></defs><g transform="matrix(1.00, 0.00, -0.00, -1.00, 0.0, 768.0)"><g><clipPath id="clip0x6000006b8f00"><path d="M 0.0 768.0 L 1024.0 768.0 L 1024.0 0.0 L 0.0 0.0 Z M 0.0 768.0 "></path></clipPath><g clip-path="url(#clip0x6000006b8f00)"><image xlink:href="DCFE4F539859487DBCD65320AD7E9FA1.jpeg" width="2048.00" height="1536.00" transform="matrix(0.50, 0.00, -0.00, -0.50, 0.0, 768.0)"></image></g></g><text xml:space="preserve" font-family="LucidaGrande,Lucida Grande" font-size="72.0" fill="#3E2319" transform="matrix(1.00, 0.00, -0.00, -1.00, 293.0, 409.2)">П</text><text xml:space="preserve" font-family="LucidaGrande,Lucida Grande" font-size="72.0" fill="#3E2319" transform="matrix(1.00, 0.00, -0.00, -1.00, 346.0, 409.2)">и</text><text xml:space="preserve" font-family="LucidaGrande,Lucida Grande" font-size="72.0" fill="#3E2319" transform="matrix(1.00, 0.00, -0.00, -1.00, 391.1, 409.2)">в</text><text xml:space="preserve" font-family="LucidaGrande,Lucida Grande" font-size="72.0" fill="#3E2319" transform="matrix(1.00, 0.00, -0.00, -1.00, 428.9, 409.2)">о</text><text xml:space="preserve" font-family="Papyrus,Papyrus" font-size="72.0" fill="#3E2319" transform="matrix(1.00, 0.00, -0.00, -1.00, 473.1, 409.2)"> </text><text xml:space="preserve" font-family="LucidaGrande,Lucida Grande" font-size="72.0" fill="#3E2319" transform="matrix(1.00, 0.00, -0.00, -1.00, 489.4, 409.2)">и</text><text xml:space="preserve" font-family="Papyrus,Papyrus" font-size="72.0" fill="#3E2319" transform="matrix(1.00, 0.00, -0.00, -1.00, 534.6, 409.2)"> </text><text xml:space="preserve" font-family="LucidaGrande,Lucida Grande" font-size="72.0" fill="#3E2319" transform="matrix(1.00, 0.00, -0.00, -1.00, 550.9, 409.2)">р</text><text xml:space="preserve" font-family="LucidaGrande,Lucida Grande" font-size="72.0" fill="#3E2319" transform="matrix(1.00, 0.00, -0.00, -1.00, 596.2, 409.2)">ы</text><text xml:space="preserve" font-family="LucidaGrande,Lucida Grande" font-size="72.0" fill="#3E2319" transform="matrix(1.00, 0.00, -0.00, -1.00, 648.3, 409.2)">б</text><text xml:space="preserve" font-family="LucidaGrande,Lucida Grande" font-size="72.0" fill="#3E2319" transform="matrix(1.00, 0.00, -0.00, -1.00, 691.3, 409.2)">а</text><text xml:space="preserve" font-family="LucidaGrande,Lucida Grande" font-size="36.0" fill="#3E2319" transform="matrix(1.00, 0.00, -0.00, -1.00, 282.9, 320.6)">М</text><text xml:space="preserve" font-family="LucidaGrande,Lucida Grande" font-size="36.0" fill="#3E2319" transform="matrix(1.00, 0.00, -0.00, -1.00, 313.9, 320.6)">а</text><text xml:space="preserve" font-family="LucidaGrande,Lucida Grande" font-size="36.0" fill="#3E2319" transform="matrix(1.00, 0.00, -0.00, -1.00, 333.8, 320.6)">г</text><text xml:space="preserve" font-family="LucidaGrande,Lucida Grande" font-size="36.0" fill="#3E2319" transform="matrix(1.00, 0.00, -0.00, -1.00, 351.6, 320.6)">а</text><text xml:space="preserve" font-family="LucidaGrande,Lucida Grande" font-size="36.0" fill="#3E2319" transform="matrix(1.00, 0.00, -0.00, -1.00, 371.5, 320.6)">з</text><text xml:space="preserve" font-family="LucidaGrande,Lucida Grande" font-size="36.0" fill="#3E2319" transform="matrix(1.00, 0.00, -0.00, -1.00, 388.8, 320.6)">и</text><text xml:space="preserve" font-family="LucidaGrande,Lucida Grande" font-size="36.0" fill="#3E2319" transform="matrix(1.00, 0.00, -0.00, -1.00, 411.4, 320.6)">н</text><text xml:space="preserve" font-family="Papyrus,Papyrus" font-size="36.0" fill="#3E2319" transform="matrix(1.00, 0.00, -0.00, -1.00, 433.9, 320.6)"> </text><text xml:space="preserve" font-family="LucidaGrande,Lucida Grande" font-size="36.0" fill="#3E2319" transform="matrix(1.00, 0.00, -0.00, -1.00, 442.0, 320.6)">р</text><text xml:space="preserve" font-family="LucidaGrande,Lucida Grande" font-size="36.0" fill="#3E2319" transform="matrix(1.00, 0.00, -0.00, -1.00, 464.7, 320.6)">а</text><text xml:space="preserve" font-family="LucidaGrande,Lucida Grande" font-size="36.0" fill="#3E2319" transform="matrix(1.00, 0.00, -0.00, -1.00, 484.6, 320.6)">з</text><text xml:space="preserve" font-family="LucidaGrande,Lucida Grande" font-size="36.0" fill="#3E2319" transform="matrix(1.00, 0.00, -0.00, -1.00, 501.9, 320.6)">л</text><text xml:space="preserve" font-family="LucidaGrande,Lucida Grande" font-size="36.0" fill="#3E2319" transform="matrix(1.00, 0.00, -0.00, -1.00, 523.1, 320.6)">и</text><text xml:space="preserve" font-family="LucidaGrande,Lucida Grande" font-size="36.0" fill="#3E2319" transform="matrix(1.00, 0.00, -0.00, -1.00, 545.6, 320.6)">в</text><text xml:space="preserve" font-family="LucidaGrande,Lucida Grande" font-size="36.0" fill="#3E2319" transform="matrix(1.00, 0.00, -0.00, -1.00, 564.5, 320.6)">н</text><text xml:space="preserve" font-family="LucidaGrande,Lucida Grande" font-size="36.0" fill="#3E2319" transform="matrix(1.00, 0.00, -0.00, -1.00, 587.1, 320.6)">о</text><text xml:space="preserve" font-family="LucidaGrande,Lucida Grande" font-size="36.0" fill="#3E2319" transform="matrix(1.00, 0.00, -0.00, -1.00, 609.2, 320.6)">г</text><text xml:space="preserve" font-family="LucidaGrande,Lucida Grande" font-size="36.0" fill="#3E2319" transform="matrix(1.00, 0.00, -0.00, -1.00, 627.0, 320.6)">о</text><text xml:space="preserve" font-family="Papyrus,Papyrus" font-size="36.0" fill="#3E2319" transform="matrix(1.00, 0.00, -0.00, -1.00, 649.0, 320.6)"> </text><text xml:space="preserve" font-family="LucidaGrande,Lucida Grande" font-size="36.0" fill="#3E2319" transform="matrix(1.00, 0.00, -0.00, -1.00, 657.2, 320.6)">п</text><text xml:space="preserve" font-family="LucidaGrande,Lucida Grande" font-size="36.0" fill="#3E2319" transform="matrix(1.00, 0.00, -0.00, -1.00, 679.8, 320.6)">и</text><text xml:space="preserve" font-family="LucidaGrande,Lucida Grande" font-size="36.0" fill="#3E2319" transform="matrix(1.00, 0.00, -0.00, -1.00, 702.4, 320.6)">в</text><text xml:space="preserve" font-family="LucidaGrande,Lucida Grande" font-size="36.0" fill="#3E2319" transform="matrix(1.00, 0.00, -0.00, -1.00, 721.2, 320.6)">а</text></g></svg>